<svg xmlns="http://www.w3.org/2000/svg" width="36" height="18" viewBox="0 0 36 18"><defs><style>.a{fill:red;}.b{fill:#fff;}</style></defs><path class="a" d="M0,0H9l.371.371H26.629L27,0h9V18H27l-.371-.371H9.371L9,18H0Z"/><path class="b" d="M2400,0h18V18h-18Zm9.338,16.612-.169-3.236a.356.356,0,0,1,.416-.367l3.221.566-.435-1.2a.243.243,0,0,1,.075-.274l3.529-2.858-.795-.371a.244.244,0,0,1-.128-.3l.7-2.145-2.032.431a.244.244,0,0,1-.274-.142l-.394-.926-1.586,1.7a.244.244,0,0,1-.417-.214l.765-3.945-1.226.709a.244.244,0,0,1-.341-.1L2409,1.5l-1.245,2.445a.244.244,0,0,1-.341.1l-1.226-.709.765,3.945a.244.244,0,0,1-.417.214l-1.586-1.7-.394.926a.244.244,0,0,1-.274.142l-2.032-.431.7,2.145a.244.244,0,0,1-.128.3l-.795.371,3.529,2.858a.243.243,0,0,1,.075.274l-.435,1.2,3.221-.566a.356.356,0,0,1,.416.368l-.169,3.236Z" transform="translate(-2391)"/></svg>